<?xml version="1.0" encoding="utf-8"?>
<!-- Generator: Adobe Illustrator 23.1.1, SVG Export Plug-In . SVG Version: 6.00 Build 0)  -->
<svg version="1.1" id="Laag_1" xmlns="http://www.w3.org/2000/svg" xmlns:xlink="http://www.w3.org/1999/xlink" x="0px" y="0px"
	 width="681.3px" height="222.6px" viewBox="0 0 681.3 222.6" style="enable-background:new 0 0 681.3 222.6;" xml:space="preserve"
	>
<style type="text/css">
	.st0{fill:#FFFFFF;}
	.st1{fill:#E73F29;}
	.st2{fill:#31B297;}
	.st3{fill:#F5C1BC;}
</style>
<g>
	<g>
		<path class="st0" d="M166.2,104.2v38.2h-6.3c-1.3,0-2.1-0.6-2.5-1.8l-0.7-2.7c-0.8,0.7-1.6,1.4-2.4,2c-0.8,0.6-1.7,1.1-2.6,1.6
			c-0.9,0.4-1.9,0.8-3,1s-2.2,0.4-3.5,0.4c-2.1,0-3.9-0.4-5.5-1.1c-1.6-0.7-3-1.7-4.1-3s-1.9-2.8-2.5-4.6s-0.9-3.7-0.9-5.8v-24.2
			h10.2v24.2c0,2.1,0.5,3.8,1.5,4.9c1,1.2,2.4,1.8,4.3,1.8c1.4,0,2.8-0.3,4-0.9c1.3-0.6,2.5-1.5,3.6-2.6v-27.4L166.2,104.2
			L166.2,104.2z"/>
		<path class="st0" d="M234.7,88.6v53.7h-9.8v-33c0-0.7,0-1.4,0.1-2.2c0-0.8,0.1-1.6,0.2-2.4l-15.4,29.1c-0.8,1.6-2.1,2.4-3.9,2.4
			h-1.6c-0.9,0-1.6-0.2-2.3-0.6s-1.2-1-1.6-1.8L185,104.6c0.1,0.9,0.1,1.7,0.2,2.5c0,0.8,0.1,1.5,0.1,2.2v33h-9.8V88.6h8.4
			c0.5,0,0.9,0,1.3,0s0.7,0.1,1,0.2s0.5,0.3,0.8,0.5c0.2,0.2,0.5,0.6,0.7,1l15,28.6c0.5,0.9,0.9,1.8,1.3,2.7
			c0.4,0.9,0.8,1.8,1.2,2.8c0.4-1,0.8-1.9,1.2-2.9c0.4-0.9,0.8-1.8,1.3-2.7l14.9-28.5c0.2-0.4,0.5-0.7,0.7-1
			c0.2-0.2,0.5-0.4,0.8-0.5s0.6-0.2,1-0.2s0.8,0,1.3,0H234.7z"/>
		<path class="st0" d="M242.8,109.5c2.2-2,4.7-3.5,7.4-4.5c2.7-1,5.7-1.5,8.8-1.5c2.3,0,4.3,0.4,6.1,1.1c1.8,0.7,3.3,1.8,4.6,3.1
			c1.2,1.3,2.2,2.9,2.9,4.7c0.7,1.8,1,3.8,1,6v24h-4.7c-1,0-1.7-0.1-2.2-0.4c-0.5-0.3-0.9-0.8-1.2-1.7l-0.8-2.4
			c-1,0.8-1.9,1.6-2.8,2.2c-0.9,0.6-1.8,1.2-2.8,1.6c-1,0.4-2,0.8-3.1,1s-2.3,0.3-3.7,0.3c-1.7,0-3.2-0.2-4.6-0.7
			c-1.4-0.4-2.6-1.1-3.6-2s-1.8-2-2.3-3.3s-0.8-2.8-0.8-4.5c0-1.4,0.4-2.8,1.1-4.2c0.7-1.4,1.9-2.7,3.7-3.8c1.7-1.1,4.1-2.1,7-2.8
			c2.9-0.8,6.5-1.2,10.9-1.3v-2c0-2.4-0.5-4.2-1.5-5.3c-1-1.1-2.5-1.7-4.4-1.7c-1.4,0-2.6,0.2-3.5,0.5s-1.8,0.7-2.5,1.1
			s-1.4,0.7-2,1.1c-0.6,0.3-1.3,0.5-2.1,0.5c-0.7,0-1.3-0.2-1.8-0.5c-0.5-0.4-0.9-0.8-1.2-1.3L242.8,109.5z M263.6,126.4
			c-2.5,0.1-4.6,0.3-6.2,0.6c-1.7,0.3-3,0.7-3.9,1.2c-1,0.5-1.7,1.1-2.1,1.7c-0.4,0.6-0.6,1.3-0.6,2.1c0,1.5,0.4,2.5,1.2,3.1
			c0.8,0.6,2,0.9,3.5,0.9c1.7,0,3.2-0.3,4.4-0.9c1.2-0.6,2.5-1.5,3.7-2.8V126.4z"/>
		<path class="st0" d="M291.1,110.5c1.2-2.2,2.6-3.9,4.2-5.1c1.6-1.3,3.4-1.9,5.6-1.9c1.7,0,3.1,0.4,4.2,1.2l-0.7,7.6
			c-0.1,0.5-0.3,0.8-0.6,1c-0.3,0.2-0.6,0.3-1.1,0.3c-0.4,0-1-0.1-1.7-0.2s-1.4-0.2-2.1-0.2c-0.9,0-1.8,0.1-2.5,0.4
			s-1.4,0.7-1.9,1.1c-0.6,0.5-1.1,1.1-1.5,1.8c-0.5,0.7-0.9,1.5-1.3,2.4v23.4h-10.2v-38.2h6c1,0,1.8,0.2,2.1,0.6
			c0.4,0.4,0.7,1,0.9,1.9L291.1,110.5z"/>
		<path class="st0" d="M319.6,87.2v31.3h1.7c0.6,0,1.1-0.1,1.5-0.3c0.4-0.2,0.7-0.5,1.1-1l8.4-11.3c0.4-0.6,0.9-1,1.4-1.3
			s1.2-0.4,2-0.4h9.3l-11,13.9c-0.9,1.2-1.9,2.1-3,2.7c0.6,0.4,1.1,0.9,1.5,1.4s0.8,1.1,1.2,1.7l11.8,18.4h-9.2
			c-0.8,0-1.5-0.1-2-0.4c-0.6-0.3-1-0.7-1.4-1.4l-8.6-14c-0.3-0.6-0.7-1-1.1-1.1c-0.4-0.2-0.9-0.3-1.7-0.3h-2.1v17.2h-10.2V87.2
			H319.6z"/>
		<path class="st0" d="M356.1,124.8c0.3,3.6,1.3,6.2,3.1,7.8s4,2.5,6.7,2.5c1.4,0,2.6-0.2,3.6-0.5s1.9-0.7,2.7-1.1
			c0.8-0.4,1.5-0.8,2.1-1.1s1.3-0.5,1.9-0.5c0.8,0,1.4,0.3,1.9,0.9l3,3.7c-1.1,1.3-2.3,2.3-3.6,3.1c-1.3,0.8-2.7,1.5-4.1,2
			s-2.8,0.8-4.3,1c-1.4,0.2-2.8,0.3-4.1,0.3c-2.7,0-5.2-0.4-7.5-1.3c-2.3-0.9-4.3-2.2-6-3.9s-3.1-3.8-4.1-6.4
			c-1-2.5-1.5-5.5-1.5-8.8c0-2.6,0.4-5,1.3-7.3s2.1-4.3,3.7-6s3.6-3.1,5.8-4.1c2.3-1,4.9-1.5,7.8-1.5c2.4,0,4.7,0.4,6.8,1.2
			c2.1,0.8,3.8,1.9,5.3,3.4s2.7,3.3,3.5,5.5s1.2,4.6,1.2,7.4c0,0.8,0,1.4-0.1,1.9s-0.2,0.9-0.4,1.2c-0.2,0.3-0.4,0.5-0.7,0.6
			c-0.3,0.1-0.7,0.2-1.1,0.2h-22.9V124.8z M372.2,118.8c0-1.1-0.1-2.1-0.4-3c-0.3-1-0.7-1.8-1.4-2.6c-0.6-0.7-1.4-1.3-2.3-1.8
			c-0.9-0.4-2.1-0.6-3.4-0.6c-2.4,0-4.4,0.7-5.7,2.1c-1.4,1.4-2.3,3.4-2.7,5.9H372.2z"/>
		<path class="st0" d="M427,142.3h-10.2v-30.8h-16.9v19.9c0,1.1,0.3,1.9,0.8,2.5s1.2,0.9,2.2,0.9c0.5,0,0.9-0.1,1.3-0.2
			c0.3-0.1,0.6-0.2,0.9-0.4c0.2-0.1,0.5-0.3,0.7-0.4c0.2-0.1,0.4-0.2,0.6-0.2c0.3,0,0.5,0.1,0.7,0.2c0.2,0.1,0.4,0.4,0.6,0.7
			l3.1,4.9c-1.4,1.1-3,2-4.8,2.5c-1.8,0.6-3.6,0.9-5.5,0.9c-1.7,0-3.3-0.3-4.6-0.8c-1.3-0.5-2.5-1.2-3.4-2.2
			c-0.9-0.9-1.6-2.1-2.1-3.4c-0.5-1.3-0.7-2.8-0.7-4.5v-20.6h-3.6c-0.5,0-1-0.2-1.4-0.5s-0.6-0.9-0.6-1.6v-4l6.1-1.1l2.1-9.9
			c0.3-1.1,1-1.7,2.3-1.7h5.3v11.6H427V142.3z M428.6,93.3c0,0.8-0.2,1.6-0.5,2.4s-0.8,1.4-1.4,2s-1.3,1-2,1.3
			c-0.8,0.3-1.6,0.5-2.5,0.5c-0.8,0-1.6-0.2-2.4-0.5s-1.4-0.8-2-1.3c-0.6-0.6-1-1.2-1.4-2c-0.3-0.8-0.5-1.5-0.5-2.4s0.2-1.7,0.5-2.4
			c0.3-0.8,0.8-1.4,1.4-2s1.2-1,2-1.4c0.8-0.3,1.5-0.5,2.4-0.5s1.7,0.2,2.5,0.5s1.5,0.8,2,1.4c0.6,0.6,1,1.2,1.4,2
			C428.4,91.6,428.6,92.4,428.6,93.3z"/>
		<path class="st0" d="M445.2,108.6c0.8-0.7,1.6-1.4,2.4-2c0.8-0.6,1.7-1.1,2.6-1.6c0.9-0.4,1.9-0.8,3-1s2.2-0.4,3.5-0.4
			c2.1,0,3.9,0.4,5.5,1.1s3,1.7,4.1,3s1.9,2.8,2.5,4.6c0.6,1.8,0.8,3.7,0.8,5.8v24.2h-10.2v-24.2c0-2.1-0.5-3.8-1.5-4.9
			c-1-1.2-2.4-1.8-4.4-1.8c-1.4,0-2.8,0.3-4,0.9c-1.3,0.6-2.5,1.5-3.6,2.6v27.4h-10.2v-38.2h6.3c1.3,0,2.1,0.6,2.6,1.8L445.2,108.6z
			"/>
		<path class="st0" d="M511.7,105.4v3.7c0,0.6-0.2,1.1-0.5,1.4s-0.9,0.6-1.6,0.8l-3.1,0.6c0.4,1.2,0.6,2.5,0.6,3.9
			c0,1.9-0.4,3.6-1.2,5.1s-1.8,2.8-3.2,3.9s-3,1.9-4.8,2.5s-3.8,0.9-6,0.9c-1.4,0-2.6-0.1-3.8-0.3c-1,0.6-1.6,1.3-1.6,2.1
			c0,0.7,0.4,1.2,1.1,1.6c0.7,0.3,1.6,0.6,2.8,0.7c1.1,0.1,2.5,0.2,3.9,0.3c1.5,0,3,0.1,4.5,0.2c1.5,0.1,3,0.3,4.5,0.6
			s2.8,0.8,3.9,1.5c1.1,0.7,2.1,1.6,2.8,2.8s1.1,2.7,1.1,4.5c0,1.7-0.4,3.4-1.3,5c-0.8,1.6-2.1,3-3.6,4.3c-1.6,1.3-3.5,2.3-5.9,3
			c-2.3,0.8-5,1.1-7.9,1.1s-5.5-0.3-7.6-0.8c-2.2-0.6-3.9-1.3-5.4-2.2c-1.4-0.9-2.5-2-3.2-3.2s-1-2.5-1-3.8c0-1.7,0.5-3.1,1.6-4.3
			c1-1.2,2.5-2.1,4.3-2.8c-1-0.5-1.7-1.3-2.3-2.1c-0.6-0.9-0.9-2-0.9-3.4c0-1.1,0.4-2.3,1.2-3.6s2.1-2.3,3.8-3.1
			c-1.9-1-3.5-2.4-4.6-4.2c-1.1-1.7-1.7-3.8-1.7-6.1c0-1.9,0.4-3.6,1.2-5.1s1.9-2.8,3.2-3.9c1.4-1.1,3-1.9,4.9-2.5s3.9-0.9,6.1-0.9
			c3.3,0,6.1,0.6,8.6,1.9h11.1V105.4z M501.5,143.9c0-0.7-0.2-1.2-0.6-1.6c-0.4-0.4-1-0.8-1.7-1s-1.5-0.4-2.5-0.5s-2-0.2-3.1-0.3
			s-2.2-0.1-3.4-0.2c-1.2,0-2.3-0.1-3.4-0.3c-0.9,0.5-1.6,1.1-2.1,1.8c-0.6,0.7-0.8,1.5-0.8,2.4c0,0.6,0.1,1.2,0.4,1.7
			c0.3,0.5,0.8,1,1.4,1.3c0.7,0.4,1.5,0.7,2.6,0.9s2.4,0.3,4.1,0.3c1.7,0,3.1-0.1,4.3-0.3s2.1-0.5,2.8-0.9s1.2-0.9,1.5-1.5
			C501.4,145.2,501.5,144.6,501.5,143.9z M491.9,121.8c2.1,0,3.6-0.5,4.6-1.6s1.5-2.4,1.5-4.1c0-1.8-0.5-3.1-1.5-4.1
			s-2.5-1.5-4.6-1.5s-3.6,0.5-4.6,1.5s-1.5,2.4-1.5,4.1s0.5,3,1.5,4.1C488.3,121.3,489.8,121.8,491.9,121.8z"/>
		<path class="st0" d="M547.4,98.9c-0.3,0.6-0.7,1-1.1,1.2c-0.4,0.3-0.8,0.4-1.4,0.4c-0.5,0-1.1-0.2-1.8-0.6
			c-0.6-0.4-1.4-0.8-2.2-1.2c-0.8-0.4-1.8-0.9-2.9-1.2c-1.1-0.4-2.4-0.6-3.8-0.6c-2.6,0-4.5,0.6-5.8,1.7s-1.9,2.6-1.9,4.5
			c0,1.2,0.4,2.2,1.1,2.9c0.7,0.8,1.6,1.4,2.8,2c1.1,0.6,2.4,1.1,3.9,1.5s2.9,0.9,4.5,1.5c1.5,0.5,3,1.2,4.5,1.9
			c1.5,0.7,2.8,1.6,3.9,2.7c1.1,1.1,2.1,2.4,2.8,4s1.1,3.5,1.1,5.7c0,2.4-0.4,4.7-1.3,6.9c-0.9,2.1-2.1,4-3.7,5.6
			c-1.6,1.6-3.6,2.8-5.9,3.8s-5,1.4-8,1.4c-1.7,0-3.4-0.2-5.1-0.5c-1.7-0.3-3.3-0.8-4.9-1.4c-1.6-0.6-3-1.4-4.4-2.2
			c-1.4-0.9-2.6-1.8-3.6-2.9l3.3-5.3c0.3-0.4,0.6-0.7,1.1-1s0.9-0.4,1.4-0.4c0.7,0,1.4,0.2,2.1,0.7c0.7,0.5,1.6,1,2.6,1.6
			s2.1,1.1,3.3,1.6c1.3,0.5,2.8,0.7,4.6,0.7c2.6,0,4.6-0.6,6-1.8s2.1-2.9,2.1-5.3c0-1.4-0.4-2.5-1.1-3.3c-0.7-0.8-1.6-1.5-2.8-2.1
			c-1.1-0.6-2.4-1.1-3.9-1.5s-2.9-0.9-4.5-1.3c-1.5-0.5-3-1.1-4.5-1.8c-1.5-0.7-2.8-1.6-3.9-2.7c-1.1-1.1-2.1-2.5-2.8-4.2
			s-1.1-3.8-1.1-6.3c0-2,0.4-3.9,1.2-5.8s1.9-3.5,3.5-5c1.5-1.5,3.4-2.6,5.6-3.5c2.2-0.9,4.8-1.3,7.7-1.3c3.2,0,6.2,0.5,9,1.5
			s5.1,2.4,7,4.2L547.4,98.9z"/>
		<path class="st0" d="M590.6,104.2v38.2h-6.3c-1.3,0-2.1-0.6-2.5-1.8l-0.7-2.7c-0.8,0.7-1.6,1.4-2.4,2c-0.8,0.6-1.7,1.1-2.6,1.6
			c-0.9,0.4-1.9,0.8-3,1s-2.2,0.4-3.5,0.4c-2.1,0-3.9-0.4-5.5-1.1c-1.6-0.7-3-1.7-4.1-3s-1.9-2.8-2.5-4.6s-0.9-3.7-0.9-5.8v-24.2
			h10.2v24.2c0,2.1,0.5,3.8,1.5,4.9c1,1.2,2.4,1.8,4.3,1.8c1.4,0,2.8-0.3,4-0.9c1.3-0.6,2.5-1.5,3.6-2.6v-27.4L590.6,104.2
			L590.6,104.2z"/>
		<path class="st0" d="M610.8,93.3c0,0.9-0.2,1.7-0.5,2.4c-0.3,0.7-0.8,1.4-1.4,2c-0.6,0.6-1.3,1-2,1.3c-0.8,0.3-1.6,0.5-2.5,0.5
			c-0.8,0-1.6-0.2-2.4-0.5c-0.8-0.3-1.4-0.8-2-1.3c-0.6-0.6-1-1.2-1.4-2c-0.3-0.7-0.5-1.5-0.5-2.4s0.2-1.7,0.5-2.4
			c0.3-0.8,0.8-1.4,1.4-2c0.6-0.6,1.2-1,2-1.3s1.5-0.5,2.4-0.5s1.7,0.2,2.5,0.5s1.5,0.8,2,1.3c0.6,0.6,1,1.2,1.4,2
			C610.6,91.7,610.8,92.5,610.8,93.3z M609.5,104.2v38.2h-10.2v-38.2H609.5z"/>
		<path class="st0" d="M631.5,142.9c-1.7,0-3.3-0.3-4.6-0.8s-2.5-1.2-3.4-2.2c-0.9-0.9-1.6-2.1-2.1-3.4c-0.5-1.3-0.7-2.8-0.7-4.5
			v-20.6h-3.6c-0.5,0-1-0.2-1.4-0.5s-0.6-0.9-0.6-1.6v-4l6.1-1.1l2.1-9.9c0.3-1.1,1-1.7,2.3-1.7h5.3v11.6h9.8v7.1h-9.8v19.9
			c0,1.1,0.3,1.9,0.8,2.5s1.2,0.9,2.2,0.9c0.5,0,0.9-0.1,1.3-0.2c0.3-0.1,0.6-0.2,0.9-0.4c0.2-0.1,0.5-0.3,0.7-0.4
			c0.2-0.1,0.4-0.2,0.6-0.2c0.3,0,0.5,0.1,0.7,0.2c0.2,0.1,0.4,0.4,0.6,0.7l3.1,4.9c-1.4,1.1-3,2-4.8,2.5
			C635.2,142.6,633.4,142.9,631.5,142.9z"/>
		<path class="st0" d="M654,124.8c0.3,3.6,1.3,6.2,3.1,7.8s4,2.5,6.7,2.5c1.4,0,2.6-0.2,3.6-0.5s1.9-0.7,2.7-1.1
			c0.8-0.4,1.5-0.8,2.1-1.1s1.3-0.5,1.9-0.5c0.8,0,1.4,0.3,1.9,0.9l3,3.7c-1.1,1.3-2.3,2.3-3.6,3.1s-2.7,1.5-4.1,2
			c-1.4,0.5-2.8,0.8-4.3,1c-1.4,0.2-2.8,0.3-4.1,0.3c-2.7,0-5.2-0.4-7.5-1.3c-2.3-0.9-4.3-2.2-6-3.9s-3.1-3.8-4.1-6.4
			c-1-2.5-1.5-5.5-1.5-8.8c0-2.6,0.4-5,1.3-7.3s2.1-4.3,3.7-6c1.6-1.7,3.6-3.1,5.8-4.1c2.3-1,4.9-1.5,7.8-1.5c2.4,0,4.7,0.4,6.8,1.2
			c2.1,0.8,3.8,1.9,5.3,3.4s2.7,3.3,3.5,5.5s1.2,4.6,1.2,7.4c0,0.8,0,1.4-0.1,1.9s-0.2,0.9-0.4,1.2c-0.2,0.3-0.4,0.5-0.7,0.6
			s-0.7,0.2-1.1,0.2H654V124.8z M670.1,118.8c0-1.1-0.1-2.1-0.4-3c-0.3-1-0.7-1.8-1.4-2.6c-0.6-0.7-1.4-1.3-2.3-1.8
			c-0.9-0.4-2.1-0.6-3.4-0.6c-2.4,0-4.4,0.7-5.7,2.1c-1.4,1.4-2.3,3.4-2.7,5.9H670.1z"/>
	</g>
	<g>
		<g>
			<path class="st0" d="M66.2,142.2c-5.3,5.3-12.5,8.5-20.6,8.5c-7.8,0-15.1-3-20.6-8.5s-8.5-12.8-8.5-20.6v-25c0-2.4,2-4.4,4.4-4.4
				s4.4,2,4.4,4.4v25c0,5.5,2.1,10.6,6,14.4c3.9,3.9,9,6,14.4,6c11.2,0,20.4-9.2,20.4-20.4V96.5c0-2.4,2-4.4,4.4-4.4s4.4,2,4.4,4.4
				v25.1C74.7,129.7,71.4,137,66.2,142.2z"/>
		</g>
	</g>
	<g>
		<g>
			<path class="st1" d="M54.5,130.6c-2.4,2.4-5.5,3.7-8.9,3.7c-7,0-12.6-5.7-12.6-12.6v-8.6c0-2.4,2-4.4,4.4-4.4s4.4,2,4.4,4.4v8.6
				c0,2.1,1.7,3.9,3.9,3.9c1,0,2-0.4,2.7-1.1l0,0c0.7-0.7,1.1-1.7,1.1-2.8V89.3c0-3.4,1.3-6.5,3.6-9c2.4-2.5,5.6-3.9,9-3.9
				c2.5,0,5,0.8,7.1,2.2c0.3,0.2,0.5,0.4,0.8,0.6c1.9,1.5,2.2,4.3,0.6,6.1c-1.5,1.9-4.3,2.2-6.1,0.6c-0.1-0.1-0.2-0.1-0.2-0.2
				c-0.4-0.3-1.2-0.7-2.1-0.7c-2.1,0-3.8,1.9-3.8,4.1v32.3C58.2,125,56.9,128.2,54.5,130.6L54.5,130.6z"/>
		</g>
	</g>
	<g>
		<g>
			<path class="st2" d="M40.4,101.3c-0.8,0.8-1.9,1.3-3.1,1.3c-2.4,0-4.4-2-4.4-4.4v-21c0-5.5-2.1-10.6-6-14.4
				c-1.7-1.7-1.7-4.5,0-6.2s4.5-1.7,6.2,0c5.5,5.5,8.5,12.8,8.5,20.6v21C41.7,99.4,41.2,100.5,40.4,101.3z"/>
		</g>
	</g>
	<g>
		<g>
			<path class="st3" d="M89.9,101.5c-0.8,0.8-1.9,1.3-3.1,1.3c-2.4,0-4.4-2-4.4-4.4V80.8c0-2.4,2-4.4,4.4-4.4s4.4,2,4.4,4.4v17.6
				C91.2,99.6,90.7,100.7,89.9,101.5z"/>
		</g>
	</g>
	<g>
		<g>
			<path class="st2" d="M77.8,153.9c-8.6,8.6-20.1,13.4-32.2,13.4c-11.8,0-22.9-4.5-31.5-12.6c-1.7-1.7-1.8-4.4-0.2-6.2
				c1.7-1.7,4.4-1.8,6.2-0.2c6.9,6.6,15.9,10.2,25.4,10.2c9.8,0,19.1-3.8,26.1-10.8l0,0c7-7,10.8-16.3,10.8-26.1V113
				c0-2.4,2-4.4,4.4-4.4s4.4,2,4.4,4.4v8.6C91.2,133.8,86.5,145.3,77.8,153.9L77.8,153.9z"/>
		</g>
	</g>
	<g>
		<g>
			<path class="st3" d="M12.2,144.1c-0.3,0.3-0.6,0.6-1,0.8c-2.1,1.1-4.8,0.3-5.9-1.8C1.8,136.6,0,129.2,0,121.7V80.5
				c0-3.4,1.3-6.5,3.7-8.9l0,0c2.4-2.4,5.5-3.7,8.9-3.7s6.5,1.3,8.9,3.7c2.4,2.4,3.7,5.6,3.7,8.9V82c0,2.4-2,4.4-4.4,4.4
				s-4.4-2-4.4-4.4v-1.5c0-2.1-1.7-3.9-3.9-3.9c-2.1,0-3.9,1.7-3.9,3.9v41.2c0,6,1.5,12,4.3,17.3C13.9,140.7,13.5,142.7,12.2,144.1z
				"/>
		</g>
	</g>
</g>
</svg>
